<svg xmlns="http://www.w3.org/2000/svg" version="1.1" xmlns:xlink="http://www.w3.org/1999/xlink" xmlns:svgjs="http://svgjs.dev/svgjs" width="1000" height="1000" viewBox="0 0 1000 1000"><rect width="1000" height="1000" fill="#ffffff"></rect><g transform="matrix(0.7,0,0,0.7,150.07394474854271,280.37797570850205)"><svg viewBox="0 0 393 247" data-background-color="#111111" preserveAspectRatio="xMidYMid meet" height="628" width="1000" xmlns="http://www.w3.org/2000/svg" xmlns:xlink="http://www.w3.org/1999/xlink"><g id="tight-bounds" transform="matrix(1,0,0,1,-0.04151469453898926,-0.09999999999999432)"><svg viewBox="0 0 393.0830154549915 247.2" height="247.2" width="393.0830154549915"><g><svg viewBox="0 0 395.52 248.73255815143477" height="247.2" width="393.0830154549915"><g transform="matrix(1,0,0,1,0,182.67652373582854)"><svg viewBox="0 0 395.52 66.05603441560622" height="66.05603441560622" width="395.52"><g id="textblocktransform"><svg viewBox="0 0 395.52 66.05603441560622" height="66.05603441560622" width="395.52" id="textblock"><g><svg viewBox="0 0 395.52 42.53437701974865" height="42.53437701974865" width="395.52"><g transform="matrix(1,0,0,1,0,0)"><svg width="395.52" viewBox="0.5 -29.450000762939453 275.489990234375 29.950000762939453" height="42.53437701974865" data-palette-color="#ffffff"><g class="wordmark-text-0" data-fill-palette-color="primary" id="text-0"><path d="M20.05 0L13.6 0Q10 0 7.03-0.18 4.05-0.35 2.27-0.8 0.5-1.25 0.5-2.05L0.5-2.05 3-5.9Q4.45-5.25 7.03-5.03 9.6-4.8 13.85-4.8L13.85-4.8 18.65-4.8Q21-4.8 21.75-5.93 22.5-7.05 22.5-8.35L22.5-8.35 22.5-25.4 22.1-29.4 29.1-29.4 29.1-8.95Q29.1-6.45 28.48-4.4 27.85-2.35 25.93-1.18 24 0 20.05 0L20.05 0ZM59.3 0L42.7 0Q39.3 0 37.7-0.3 36.1-0.6 36.1-1L36.1-1 38.1-5.35Q39.25-5.15 43.82-4.98 48.4-4.8 56.4-4.8L56.4-4.8 57.35-4.8Q59.5-4.8 60.4-5.58 61.3-6.35 61.3-8.2L61.3-8.2 61.3-9.2Q61.3-10.95 60.57-11.7 59.85-12.45 57.35-12.45L57.35-12.45 45.75-12.45Q40.7-12.45 38.4-14.33 36.1-16.2 36.1-20.45L36.1-20.45 36.1-21.25Q36.1-23.45 36.92-25.3 37.75-27.15 39.75-28.28 41.75-29.4 45.25-29.4L45.25-29.4 58.85-29.4Q62.25-29.4 64.35-29.05 66.45-28.7 66.45-28.3L66.45-28.3 65.45-24.1Q64.15-24.25 59.55-24.43 54.95-24.6 47.2-24.6L47.2-24.6 46.65-24.65Q44.35-24.65 43.55-23.73 42.75-22.8 42.7-21.4L42.7-21.4 42.7-20.55Q42.7-18.9 43.62-18.07 44.55-17.25 46.7-17.25L46.7-17.25 57.8-17.25Q61-17.25 63.25-16.6 65.5-15.95 66.7-14.23 67.9-12.5 67.9-9.15L67.9-9.15 67.9-8.35Q67.9-4.6 65.97-2.3 64.05 0 59.3 0L59.3 0Z" fill="#000000" data-fill-palette-color="primary"></path><path d="M105.45 0L91.55 0Q88 0 86-1 84-2 83.2-4 82.4-6 82.4-8.95L82.4-8.95 82.4-20.1Q82.4-24.9 84.55-27.18 86.7-29.45 91.55-29.45L91.55-29.45 106.6-29.45Q110.05-29.45 111.87-29.08 113.7-28.7 113.7-28.3L113.7-28.3 112.7-24.15Q111.85-24.3 107.67-24.48 103.5-24.65 95.55-24.65L95.55-24.65 93-24.65Q89-24.65 89-21.1L89-21.1 89-8.35Q89-6.65 89.87-5.73 90.75-4.8 93-4.8L93-4.8 95.05-4.8Q103.35-4.8 107.92-4.98 112.5-5.15 113.6-5.35L113.6-5.35 115.65-2.05Q115.65-1.8 114.82-1.3 114-0.8 111.8-0.4 109.6 0 105.45 0L105.45 0ZM143.9 0L129.3 0Q125.8 0 123.8-1 121.8-2 120.97-4 120.15-6 120.15-8.95L120.15-8.95 120.15-20.5Q120.15-23.4 120.95-25.38 121.75-27.35 123.75-28.38 125.75-29.4 129.3-29.4L129.3-29.4 143.9-29.4Q147.4-29.4 149.37-28.38 151.35-27.35 152.17-25.38 152.99-23.4 152.99-20.5L152.99-20.5 152.99-8.95Q152.99-4.55 151.05-2.27 149.1 0 143.9 0L143.9 0ZM130.75-4.8L130.75-4.8 142.49-4.8Q144.35-4.8 145.37-5.75 146.4-6.7 146.4-8.35L146.4-8.35 146.4-21.1Q146.4-22.55 145.35-23.58 144.3-24.6 142.49-24.6L142.49-24.6 130.75-24.6Q128.95-24.6 127.85-23.65 126.75-22.7 126.75-21.1L126.75-21.1 126.75-8.35Q126.75-6.65 127.82-5.73 128.9-4.8 130.75-4.8ZM183.69 0L160.99 0 160.99-25.4 160.49-29.4 183.69-29.4Q187.74-29.4 189.92-28.4 192.09-27.4 192.94-25.43 193.79-23.45 193.79-20.5L193.79-20.5 193.79-8.95Q193.79-5.95 192.97-3.98 192.14-2 189.97-1 187.79 0 183.69 0L183.69 0ZM167.59-24.6L167.59-4.8 183.29-4.8Q187.14-4.8 187.19-8.35L187.19-8.35 187.19-21.1Q187.19-22.55 186.34-23.58 185.49-24.6 183.29-24.6L183.29-24.6 167.59-24.6ZM228.09 0L200.79 0 200.79-29.4 231.89-29.4 231.89-24.6 207.39-24.6 207.39-17.7 226.09-17.7 226.09-12.75 207.39-12.75 207.39-4.8 232.09-4.8 234.09-0.55Q234.09-0.35 232.74-0.18 231.39 0 228.09 0L228.09 0ZM271.04 0.5L271.04 0.5Q269.04 0.5 267.11-0.13 265.19-0.75 262.74-3.2L262.74-3.2 259.14-6.8Q256.94-9.05 254.31-10.1 251.69-11.15 247.74-11.15L247.74-11.15 246.19-11.15 246.19 0 239.59 0 239.59-25.4 239.09-29.45 261.24-29.45Q264.44-29.45 266.26-28.6 268.09-27.75 268.96-26.38 269.84-25 270.09-23.45 270.34-21.9 270.34-20.5L270.34-20.5 270.34-19.55Q270.34-18.45 270.04-17.1 269.74-15.75 268.89-14.45 268.04-13.15 266.46-12.25 264.89-11.35 262.34-11.2L262.34-11.2Q262.99-10.85 263.99-10.13 264.99-9.4 266.06-8.55 267.14-7.7 268.04-7 268.94-6.3 269.44-6L269.44-6Q271.24-4.95 272.64-4.55 274.04-4.15 274.94-4.1 275.84-4.05 275.99-4.05L275.99-4.05 274.99 0Q274.54 0.15 273.49 0.33 272.44 0.5 271.04 0.5ZM253.69-15.7L253.69-15.7Q255.59-15.7 257.09-15.78 258.59-15.85 259.79-15.95L259.79-15.95Q261.99-16.2 262.86-17.18 263.74-18.15 263.74-19.7L263.74-19.7 263.74-20.85Q263.74-22.45 262.89-23.55 262.04-24.65 259.84-24.65L259.84-24.65 246.19-24.65 246.19-15.95Q248.39-15.8 250.24-15.75 252.09-15.7 253.69-15.7Z" fill="#000000" data-fill-palette-color="primary"></path></g></svg></g></svg></g><g transform="matrix(1,0,0,1,0,52.57572260906284)"><svg viewBox="0 0 395.52 13.480311806543387" height="13.480311806543387" width="395.52"><g transform="matrix(1,0,0,1,0,0)"><svg width="395.52" viewBox="4 -29.450000762939453 878.6900024414062 29.950000762939453" height="13.480311806543387" data-palette-color="#ffffff"><path d="M31.3 0L4 0 4-29.4 35.1-29.4 35.1-24.6 10.6-24.6 10.6-17.7 29.3-17.7 29.3-12.75 10.6-12.75 10.6-4.8 35.3-4.8 37.3-0.55Q37.3-0.35 35.95-0.18 34.6 0 31.3 0L31.3 0ZM45.6 0L38.3 0 52.95-29.4 62.8-29.4 77.4 0 69.7 0 66.75-6.35 48.85-6.35 45.6 0ZM57.55-24.9L50.65-11.25 64.9-11.25 58.05-24.9 57.55-24.9ZM92.05 0L85.45 0 85.4-24.65 72.4-24.65 72.4-29.45 105.1-29.45 105.1-24.65 92.05-24.65 92.05 0ZM143.64 0L129.74 0Q126.19 0 124.19-1 122.19-2 121.39-4 120.59-6 120.59-8.95L120.59-8.95 120.59-20.1Q120.59-24.9 122.74-27.18 124.89-29.45 129.74-29.45L129.74-29.45 144.79-29.45Q148.24-29.45 150.07-29.08 151.89-28.7 151.89-28.3L151.89-28.3 150.89-24.15Q150.04-24.3 145.87-24.48 141.69-24.65 133.74-24.65L133.74-24.65 131.19-24.65Q127.19-24.65 127.19-21.1L127.19-21.1 127.19-8.35Q127.19-6.65 128.07-5.73 128.94-4.8 131.19-4.8L131.19-4.8 133.24-4.8Q141.54-4.8 146.12-4.98 150.69-5.15 151.79-5.35L151.79-5.35 153.84-2.05Q153.84-1.8 153.02-1.3 152.19-0.8 149.99-0.4 147.79 0 143.64 0L143.64 0ZM182.09 0L167.49 0Q163.99 0 161.99-1 159.99-2 159.16-4 158.34-6 158.34-8.95L158.34-8.95 158.34-20.5Q158.34-23.4 159.14-25.38 159.94-27.35 161.94-28.38 163.94-29.4 167.49-29.4L167.49-29.4 182.09-29.4Q185.59-29.4 187.56-28.38 189.54-27.35 190.36-25.38 191.19-23.4 191.19-20.5L191.19-20.5 191.19-8.95Q191.19-4.55 189.24-2.27 187.29 0 182.09 0L182.09 0ZM168.94-4.8L168.94-4.8 180.69-4.8Q182.54-4.8 183.56-5.75 184.59-6.7 184.59-8.35L184.59-8.35 184.59-21.1Q184.59-22.55 183.54-23.58 182.49-24.6 180.69-24.6L180.69-24.6 168.94-24.6Q167.14-24.6 166.04-23.65 164.94-22.7 164.94-21.1L164.94-21.1 164.94-8.35Q164.94-6.65 166.01-5.73 167.09-4.8 168.94-4.8ZM221.89 0L199.19 0 199.19-25.4 198.69-29.4 221.89-29.4Q225.94-29.4 228.11-28.4 230.29-27.4 231.14-25.43 231.99-23.45 231.99-20.5L231.99-20.5 231.99-8.95Q231.99-5.95 231.16-3.98 230.34-2 228.16-1 225.99 0 221.89 0L221.89 0ZM205.79-24.6L205.79-4.8 221.49-4.8Q225.34-4.8 225.39-8.35L225.39-8.35 225.39-21.1Q225.39-22.55 224.54-23.58 223.69-24.6 221.49-24.6L221.49-24.6 205.79-24.6ZM266.28 0L238.98 0 238.98-29.4 270.08-29.4 270.08-24.6 245.58-24.6 245.58-17.7 264.28-17.7 264.28-12.75 245.58-12.75 245.58-4.8 270.28-4.8 272.28-0.55Q272.28-0.35 270.93-0.18 269.58 0 266.28 0L266.28 0ZM311.83 0L296.93 0Q293.38 0 291.38-1 289.38-2 288.58-4 287.78-6 287.78-8.95L287.78-8.95 287.78-20.1Q287.78-24.9 289.93-27.18 292.08-29.45 296.93-29.45L296.93-29.45 311.98-29.45Q315.43-29.45 317.25-29.08 319.08-28.7 319.08-28.3L319.08-28.3 318.08-24.15Q317.23-24.3 313.05-24.48 308.88-24.65 300.93-24.65L300.93-24.65 298.38-24.65Q294.38-24.65 294.38-21.1L294.38-21.1 294.38-8.35Q294.38-6.65 295.25-5.73 296.13-4.8 298.38-4.8L298.38-4.8 300.43-4.8Q305.23-4.8 308.53-4.88 311.83-4.95 313.98-5L313.98-5 313.98-11.8 310.98-11.75 304.43-11.25 304.43-16.15 320.53-16.15 320.53-2.1 321.03-1.05Q321.03-0.65 318.93-0.33 316.83 0 311.83 0L311.83 0ZM331.33 0L324.03 0 338.68-29.4 348.53-29.4 363.13 0 355.43 0 352.48-6.35 334.58-6.35 331.33 0ZM343.28-24.9L336.38-11.25 350.63-11.25 343.78-24.9 343.28-24.9ZM374.22 0L367.62 0 367.62-25.4 367.12-29.4 374.72-29.4 386.02-9.4 397.72-29.4 404.47-29.4 404.47 0 397.87 0 397.87-18.65 397.32-18.65 395.37-14.3 389.07-3 383.02-3 376.72-14.3 374.72-18.65 374.22-18.65 374.22 0ZM439.77 0L412.47 0 412.47-29.4 443.57-29.4 443.57-24.6 419.07-24.6 419.07-17.7 437.77-17.7 437.77-12.75 419.07-12.75 419.07-4.8 443.77-4.8 445.77-0.55Q445.77-0.35 444.42-0.18 443.07 0 439.77 0L439.77 0ZM483.97 0L467.37 0Q463.97 0 462.37-0.3 460.77-0.6 460.77-1L460.77-1 462.77-5.35Q463.92-5.15 468.49-4.98 473.07-4.8 481.07-4.8L481.07-4.8 482.02-4.8Q484.17-4.8 485.07-5.58 485.97-6.35 485.97-8.2L485.97-8.2 485.97-9.2Q485.97-10.95 485.24-11.7 484.52-12.45 482.02-12.45L482.02-12.45 470.42-12.45Q465.37-12.45 463.07-14.33 460.77-16.2 460.77-20.45L460.77-20.45 460.77-21.25Q460.77-23.45 461.59-25.3 462.42-27.15 464.42-28.28 466.42-29.4 469.92-29.4L469.92-29.4 483.52-29.4Q486.92-29.4 489.02-29.05 491.12-28.7 491.12-28.3L491.12-28.3 490.12-24.1Q488.82-24.25 484.22-24.43 479.62-24.6 471.87-24.6L471.87-24.6 471.32-24.65Q469.02-24.65 468.22-23.73 467.42-22.8 467.37-21.4L467.37-21.4 467.37-20.55Q467.37-18.9 468.29-18.07 469.22-17.25 471.37-17.25L471.37-17.25 482.47-17.25Q485.67-17.25 487.92-16.6 490.17-15.95 491.37-14.23 492.57-12.5 492.57-9.15L492.57-9.15 492.57-8.35Q492.57-4.6 490.64-2.3 488.72 0 483.97 0L483.97 0ZM506.66 0L500.06 0 500.06-25.4 499.56-29.45 521.71-29.45Q524.91-29.45 526.74-28.6 528.56-27.75 529.44-26.38 530.31-25 530.56-23.45 530.81-21.9 530.81-20.5L530.81-20.5 530.81-17.55Q530.81-16.4 530.46-14.98 530.11-13.55 529.16-12.23 528.21-10.9 526.41-10.03 524.61-9.15 521.71-9.15L521.71-9.15 516.61-9.15Q513.46-9.15 510.74-9.3 508.01-9.45 506.66-9.55L506.66-9.55 506.66 0ZM506.66-24.65L506.66-13.95 520.26-13.95Q522.51-13.95 523.36-15.05 524.21-16.15 524.21-17.7L524.21-17.7 524.21-20.85Q524.21-22.45 523.36-23.55 522.51-24.65 520.31-24.65L520.31-24.65 506.66-24.65ZM565.11 0L537.81 0 537.81-29.4 568.91-29.4 568.91-24.6 544.41-24.6 544.41-17.7 563.11-17.7 563.11-12.75 544.41-12.75 544.41-4.8 569.11-4.8 571.11-0.55Q571.11-0.35 569.76-0.18 568.41 0 565.11 0L565.11 0ZM603.41 0L576.11 0 576.11-29.4 607.21-29.4 607.21-24.6 582.71-24.6 582.71-17.7 601.41-17.7 601.41-12.75 582.71-12.75 582.71-4.8 607.41-4.8 609.41-0.55Q609.41-0.35 608.06-0.18 606.71 0 603.41 0L603.41 0ZM621.5 0L614.9 0 614.9-25.4 614.4-29.45 636.55-29.45Q639.75-29.45 641.58-28.6 643.4-27.75 644.28-26.38 645.15-25 645.4-23.45 645.65-21.9 645.65-20.5L645.65-20.5 645.65-17.55Q645.65-16.4 645.3-14.98 644.95-13.55 644-12.23 643.05-10.9 641.25-10.03 639.45-9.15 636.55-9.15L636.55-9.15 631.45-9.15Q628.3-9.15 625.58-9.3 622.85-9.45 621.5-9.55L621.5-9.55 621.5 0ZM621.5-24.65L621.5-13.95 635.1-13.95Q637.35-13.95 638.2-15.05 639.05-16.15 639.05-17.7L639.05-17.7 639.05-20.85Q639.05-22.45 638.2-23.55 637.35-24.65 635.15-24.65L635.15-24.65 621.5-24.65ZM695.6 0.5L695.6 0.5Q693.6 0.5 691.67-0.13 689.75-0.75 687.3-3.2L687.3-3.2 683.7-6.8Q681.5-9.05 678.87-10.1 676.25-11.15 672.3-11.15L672.3-11.15 670.75-11.15 670.75 0 664.15 0 664.15-25.4 663.65-29.45 685.8-29.45Q689-29.45 690.82-28.6 692.65-27.75 693.52-26.38 694.4-25 694.65-23.45 694.9-21.9 694.9-20.5L694.9-20.5 694.9-19.55Q694.9-18.45 694.6-17.1 694.3-15.75 693.45-14.45 692.6-13.15 691.02-12.25 689.45-11.35 686.9-11.2L686.9-11.2Q687.55-10.85 688.55-10.13 689.55-9.4 690.62-8.55 691.7-7.7 692.6-7 693.5-6.3 694-6L694-6Q695.8-4.95 697.2-4.55 698.6-4.15 699.5-4.1 700.4-4.05 700.55-4.05L700.55-4.05 699.55 0Q699.1 0.15 698.05 0.33 697 0.5 695.6 0.5ZM678.25-15.7L678.25-15.7Q680.15-15.7 681.65-15.78 683.15-15.85 684.35-15.95L684.35-15.95Q686.55-16.2 687.42-17.18 688.3-18.15 688.3-19.7L688.3-19.7 688.3-20.85Q688.3-22.45 687.45-23.55 686.6-24.65 684.4-24.65L684.4-24.65 670.75-24.65 670.75-15.95Q672.95-15.8 674.8-15.75 676.65-15.7 678.25-15.7ZM732.35 0L705.05 0 705.05-29.4 736.15-29.4 736.15-24.6 711.65-24.6 711.65-17.7 730.35-17.7 730.35-12.75 711.65-12.75 711.65-4.8 736.35-4.8 738.35-0.55Q738.35-0.35 737-0.18 735.65 0 732.35 0L732.35 0ZM750.44 0L743.84 0 743.84-25.4 743.34-29.45 765.49-29.45Q768.69-29.45 770.52-28.6 772.34-27.75 773.22-26.38 774.09-25 774.34-23.45 774.59-21.9 774.59-20.5L774.59-20.5 774.59-17.55Q774.59-16.4 774.24-14.98 773.89-13.55 772.94-12.23 771.99-10.9 770.19-10.03 768.39-9.15 765.49-9.15L765.49-9.15 760.39-9.15Q757.24-9.15 754.52-9.3 751.79-9.45 750.44-9.55L750.44-9.55 750.44 0ZM750.44-24.65L750.44-13.95 764.04-13.95Q766.29-13.95 767.14-15.05 767.99-16.15 767.99-17.7L767.99-17.7 767.99-20.85Q767.99-22.45 767.14-23.55 766.29-24.65 764.09-24.65L764.09-24.65 750.44-24.65ZM808.89 0L781.59 0 781.59-29.4 812.69-29.4 812.69-24.6 788.19-24.6 788.19-17.7 806.89-17.7 806.89-12.75 788.19-12.75 788.19-4.8 812.89-4.8 814.89-0.55Q814.89-0.35 813.54-0.18 812.19 0 808.89 0L808.89 0ZM823.19 0L815.89 0 830.54-29.4 840.39-29.4 854.99 0 847.29 0 844.34-6.35 826.44-6.35 823.19 0ZM835.14-24.9L828.24-11.25 842.49-11.25 835.64-24.9 835.14-24.9ZM869.64 0L863.04 0 862.99-24.65 849.99-24.65 849.99-29.45 882.69-29.45 882.69-24.65 869.64-24.65 869.64 0Z" opacity="1" transform="matrix(1,0,0,1,0,0)" fill="#000000" class="slogan-text-1" data-fill-palette-color="secondary" id="text-1"></path></svg></g></svg></g></svg></g></svg></g><g transform="matrix(1,0,0,1,116.4630837213999,0)"><svg viewBox="0 0 162.5938325572002 162.5938325572002" height="162.5938325572002" width="162.5938325572002"><g><svg></svg></g><g id="icon-0"><svg viewBox="0 0 162.5938325572002 162.5938325572002" height="162.5938325572002" width="162.5938325572002"><g><path d="M0 81.297c0-44.899 36.398-81.297 81.297-81.297 44.899 0 81.297 36.398 81.297 81.297 0 44.899-36.398 81.297-81.297 81.297-44.899 0-81.297-36.398-81.297-81.297zM81.297 158.758c42.781 0 77.461-34.681 77.461-77.461 0-42.781-34.681-77.461-77.461-77.461-42.781 0-77.461 34.681-77.461 77.461 0 42.781 34.681 77.461 77.461 77.461z" data-fill-palette-color="accent" fill="#000000" stroke="transparent"></path></g><g transform="matrix(1,0,0,1,32.637796334221605,56.9072134037402)"><svg viewBox="0 0 97.31823988875698 48.779405749719785" height="48.779405749719785" width="97.31823988875698"><g><svg xmlns="http://www.w3.org/2000/svg" xmlns:xlink="http://www.w3.org/1999/xlink" xml:space="preserve" style="shape-rendering:geometricPrecision;text-rendering:geometricPrecision;image-rendering:optimizeQuality;" viewBox="0.0000020265579223632812 0.0000027120113372802734 14.727499008178711 7.38195276260376" x="0" y="0" fill-rule="evenodd" clip-rule="evenodd" width="97.31823988875698" height="48.779405749719785" class="icon-s-0" data-fill-palette-color="accent" id="s-0"><g fill="#ffffff" data-fill-palette-color="accent"><path class="" d="M1.757 3.091c-0.313 0.444-0.296 1.331-0.417 1.95-0.153 0.784-0.711 1.203-1.34 1.534 0.188-0.771 0.348-1.542 0.412-2.313 0.078-0.953-0.06-0.891 0.767-1.575 1.159-0.961 3.04-1.741 5.848-2.29 2.456-0.406 5.049-0.453 7.701-0.351-0.89 1.809-3.733 1.961-7.203 1.581-1.811 0.02-3.495-0.488-5.768 1.464z m8.33 2.781c-3.895 2.038-7.803-2.284-9.165 0.688 2.104-1.831 5.079 3.183 9.165-0.688z m2.489-2.547c-4.49 2.72-9.502-0.792-10.907 1.859 3.412-1.235 7.765 2.753 10.907-1.859z m0.834-1.478c-3.944 1.761-10.043-1.402-11.565 2.239 3.106-1.808 8.446 1.438 11.565-2.239z" fill="#000000" data-fill-palette-color="accent"></path></g></svg></g></svg></g></svg></g></svg></g><g></g></svg></g><defs></defs></svg><rect width="393.0830154549915" height="247.2" fill="none" stroke="none" visibility="hidden"></rect></g></svg></g></svg>