<svg xmlns="http://www.w3.org/2000/svg" version="1.1" xmlns:xlink="http://www.w3.org/1999/xlink" xmlns:svgjs="http://svgjs.dev/svgjs" width="1000" height="583" viewBox="0 0 1000 583"><g transform="matrix(1,0,0,1,-0.6060606060606233,-0.26225562814818204)"><svg viewBox="0 0 396 231" data-background-color="#111111" preserveAspectRatio="xMidYMid meet" height="583" width="1000" xmlns="http://www.w3.org/2000/svg" xmlns:xlink="http://www.w3.org/1999/xlink"><g id="tight-bounds" transform="matrix(1,0,0,1,0.2400000000000091,0.1039126073794705)"><svg viewBox="0 0 395.52 230.79217478524106" height="230.79217478524106" width="395.52"><g><svg viewBox="0 0 395.52 230.79217478524106" height="230.79217478524106" width="395.52"><g transform="matrix(1,0,0,1,0,169.84800312268027)"><svg viewBox="0 0 395.52 60.94417166256078" height="60.94417166256078" width="395.52"><g id="textblocktransform"><svg viewBox="0 0 395.52 60.94417166256078" height="60.94417166256078" width="395.52" id="textblock"><g><svg viewBox="0 0 395.52 42.53437701974865" height="42.53437701974865" width="395.52"><g transform="matrix(1,0,0,1,0,0)"><svg width="395.52" viewBox="0.5 -29.45 275.49 29.95" height="42.53437701974865" data-palette-color="#ffffff"><g class="wordmark-text-0" data-fill-palette-color="primary" id="text-0"><path d="M20.05 0L13.6 0Q10 0 7.03-0.18 4.05-0.35 2.27-0.8 0.5-1.25 0.5-2.05L0.5-2.05 3-5.9Q4.45-5.25 7.03-5.03 9.6-4.8 13.85-4.8L13.85-4.8 18.65-4.8Q21-4.8 21.75-5.93 22.5-7.05 22.5-8.35L22.5-8.35 22.5-25.4 22.1-29.4 29.1-29.4 29.1-8.95Q29.1-6.45 28.48-4.4 27.85-2.35 25.93-1.18 24 0 20.05 0L20.05 0ZM59.3 0L42.7 0Q39.3 0 37.7-0.3 36.1-0.6 36.1-1L36.1-1 38.1-5.35Q39.25-5.15 43.82-4.98 48.4-4.8 56.4-4.8L56.4-4.8 57.35-4.8Q59.5-4.8 60.4-5.58 61.3-6.35 61.3-8.2L61.3-8.2 61.3-9.2Q61.3-10.95 60.57-11.7 59.85-12.45 57.35-12.45L57.35-12.45 45.75-12.45Q40.7-12.45 38.4-14.33 36.1-16.2 36.1-20.45L36.1-20.45 36.1-21.25Q36.1-23.45 36.92-25.3 37.75-27.15 39.75-28.28 41.75-29.4 45.25-29.4L45.25-29.4 58.85-29.4Q62.25-29.4 64.35-29.05 66.45-28.7 66.45-28.3L66.45-28.3 65.45-24.1Q64.15-24.25 59.55-24.43 54.95-24.6 47.2-24.6L47.2-24.6 46.65-24.65Q44.35-24.65 43.55-23.73 42.75-22.8 42.7-21.4L42.7-21.4 42.7-20.55Q42.7-18.9 43.62-18.07 44.55-17.25 46.7-17.25L46.7-17.25 57.8-17.25Q61-17.25 63.25-16.6 65.5-15.95 66.7-14.23 67.9-12.5 67.9-9.15L67.9-9.15 67.9-8.35Q67.9-4.6 65.97-2.3 64.05 0 59.3 0L59.3 0Z" fill="#ffffff" data-fill-palette-color="primary"></path><path d="M105.45 0L91.55 0Q88 0 86-1 84-2 83.2-4 82.4-6 82.4-8.95L82.4-8.95 82.4-20.1Q82.4-24.9 84.55-27.18 86.7-29.45 91.55-29.45L91.55-29.45 106.6-29.45Q110.05-29.45 111.87-29.08 113.7-28.7 113.7-28.3L113.7-28.3 112.7-24.15Q111.85-24.3 107.67-24.48 103.5-24.65 95.55-24.65L95.55-24.65 93-24.65Q89-24.65 89-21.1L89-21.1 89-8.35Q89-6.65 89.87-5.73 90.75-4.8 93-4.8L93-4.8 95.05-4.8Q103.35-4.8 107.92-4.98 112.5-5.15 113.6-5.35L113.6-5.35 115.65-2.05Q115.65-1.8 114.82-1.3 114-0.8 111.8-0.4 109.6 0 105.45 0L105.45 0ZM143.9 0L129.3 0Q125.8 0 123.8-1 121.8-2 120.97-4 120.15-6 120.15-8.95L120.15-8.95 120.15-20.5Q120.15-23.4 120.95-25.38 121.75-27.35 123.75-28.38 125.75-29.4 129.3-29.4L129.3-29.4 143.9-29.4Q147.4-29.4 149.37-28.38 151.35-27.35 152.17-25.38 152.99-23.4 152.99-20.5L152.99-20.5 152.99-8.95Q152.99-4.55 151.05-2.27 149.1 0 143.9 0L143.9 0ZM130.75-4.8L130.75-4.8 142.49-4.8Q144.35-4.8 145.37-5.75 146.4-6.7 146.4-8.35L146.4-8.35 146.4-21.1Q146.4-22.55 145.35-23.58 144.3-24.6 142.49-24.6L142.49-24.6 130.75-24.6Q128.95-24.6 127.85-23.65 126.75-22.7 126.75-21.1L126.75-21.1 126.75-8.35Q126.75-6.65 127.82-5.73 128.9-4.8 130.75-4.8ZM183.69 0L160.99 0 160.99-25.4 160.49-29.4 183.69-29.4Q187.74-29.4 189.92-28.4 192.09-27.4 192.94-25.43 193.79-23.45 193.79-20.5L193.79-20.5 193.79-8.95Q193.79-5.95 192.97-3.98 192.14-2 189.97-1 187.79 0 183.69 0L183.69 0ZM167.59-24.6L167.59-4.8 183.29-4.8Q187.14-4.8 187.19-8.35L187.19-8.35 187.19-21.1Q187.19-22.55 186.34-23.58 185.49-24.6 183.29-24.6L183.29-24.6 167.59-24.6ZM228.09 0L200.79 0 200.79-29.4 231.89-29.4 231.89-24.6 207.39-24.6 207.39-17.7 226.09-17.7 226.09-12.75 207.39-12.75 207.39-4.8 232.09-4.8 234.09-0.55Q234.09-0.35 232.74-0.18 231.39 0 228.09 0L228.09 0ZM271.04 0.5L271.04 0.5Q269.04 0.5 267.11-0.13 265.19-0.75 262.74-3.2L262.74-3.2 259.14-6.8Q256.94-9.05 254.31-10.1 251.69-11.15 247.74-11.15L247.74-11.15 246.19-11.15 246.19 0 239.59 0 239.59-25.4 239.09-29.45 261.24-29.45Q264.44-29.45 266.26-28.6 268.09-27.75 268.96-26.38 269.84-25 270.09-23.45 270.34-21.9 270.34-20.5L270.34-20.5 270.34-19.55Q270.34-18.45 270.04-17.1 269.74-15.75 268.89-14.45 268.04-13.15 266.46-12.25 264.89-11.35 262.34-11.2L262.34-11.2Q262.99-10.85 263.99-10.13 264.99-9.4 266.06-8.55 267.14-7.7 268.04-7 268.94-6.3 269.44-6L269.44-6Q271.24-4.95 272.64-4.55 274.04-4.15 274.94-4.1 275.84-4.05 275.99-4.05L275.99-4.05 274.99 0Q274.54 0.15 273.49 0.33 272.44 0.5 271.04 0.5ZM253.69-15.7L253.69-15.7Q255.59-15.7 257.09-15.78 258.59-15.85 259.79-15.95L259.79-15.95Q261.99-16.2 262.86-17.18 263.74-18.15 263.74-19.7L263.74-19.7 263.74-20.85Q263.74-22.45 262.89-23.55 262.04-24.65 259.84-24.65L259.84-24.65 246.19-24.65 246.19-15.95Q248.39-15.8 250.24-15.75 252.09-15.7 253.69-15.7Z" fill="#ffffff" data-fill-palette-color="primary"></path></g></svg></g></svg></g><g transform="matrix(1,0,0,1,75.54432,52.57572260906284)"><svg viewBox="0 0 244.43135999999998 8.368449053497942" height="8.368449053497942" width="244.43135999999998"><g transform="matrix(1,0,0,1,0,0)"><svg width="244.43135999999998" viewBox="4 -29.45 874.74 29.95" height="8.368449053497942" data-palette-color="#ffffff"><path d="M31.3 0L4 0 4-29.4 35.1-29.4 35.1-24.6 10.6-24.6 10.6-17.7 29.3-17.7 29.3-12.75 10.6-12.75 10.6-4.8 35.3-4.8 37.3-0.55Q37.3-0.35 35.95-0.18 34.6 0 31.3 0L31.3 0ZM45.6 0L38.3 0 52.95-29.4 62.8-29.4 77.4 0 69.7 0 66.75-6.35 48.85-6.35 45.6 0ZM57.55-24.9L50.65-11.25 64.9-11.25 58.05-24.9 57.55-24.9ZM92.05 0L85.45 0 85.4-24.65 72.4-24.65 72.4-29.45 105.1-29.45 105.1-24.65 92.05-24.65 92.05 0ZM143.64 0L129.74 0Q126.19 0 124.19-1 122.19-2 121.39-4 120.59-6 120.59-8.95L120.59-8.95 120.59-20.1Q120.59-24.9 122.74-27.18 124.89-29.45 129.74-29.45L129.74-29.45 144.79-29.45Q148.24-29.45 150.07-29.08 151.89-28.7 151.89-28.3L151.89-28.3 150.89-24.15Q150.04-24.3 145.87-24.48 141.69-24.65 133.74-24.65L133.74-24.65 131.19-24.65Q127.19-24.65 127.19-21.1L127.19-21.1 127.19-8.35Q127.19-6.65 128.07-5.73 128.94-4.8 131.19-4.8L131.19-4.8 133.24-4.8Q141.54-4.8 146.12-4.98 150.69-5.15 151.79-5.35L151.79-5.35 153.84-2.05Q153.84-1.8 153.02-1.3 152.19-0.8 149.99-0.4 147.79 0 143.64 0L143.64 0ZM182.09 0L167.49 0Q163.99 0 161.99-1 159.99-2 159.16-4 158.34-6 158.34-8.95L158.34-8.95 158.34-20.5Q158.34-23.4 159.14-25.38 159.94-27.35 161.94-28.38 163.94-29.4 167.49-29.4L167.49-29.4 182.09-29.4Q185.59-29.4 187.56-28.38 189.54-27.35 190.36-25.38 191.19-23.4 191.19-20.5L191.19-20.5 191.19-8.95Q191.19-4.55 189.24-2.27 187.29 0 182.09 0L182.09 0ZM168.94-4.8L168.94-4.8 180.69-4.8Q182.54-4.8 183.56-5.75 184.59-6.7 184.59-8.35L184.59-8.35 184.59-21.1Q184.59-22.55 183.54-23.58 182.49-24.6 180.69-24.6L180.69-24.6 168.94-24.6Q167.14-24.6 166.04-23.65 164.94-22.7 164.94-21.1L164.94-21.1 164.94-8.35Q164.94-6.65 166.01-5.73 167.09-4.8 168.94-4.8ZM221.89 0L199.19 0 199.19-25.4 198.69-29.4 221.89-29.4Q225.94-29.4 228.11-28.4 230.29-27.4 231.14-25.43 231.99-23.45 231.99-20.5L231.99-20.5 231.99-8.95Q231.99-5.95 231.16-3.98 230.34-2 228.16-1 225.99 0 221.89 0L221.89 0ZM205.79-24.6L205.79-4.8 221.49-4.8Q225.34-4.8 225.39-8.35L225.39-8.35 225.39-21.1Q225.39-22.55 224.54-23.58 223.69-24.6 221.49-24.6L221.49-24.6 205.79-24.6ZM266.28 0L238.98 0 238.98-29.4 270.08-29.4 270.08-24.6 245.58-24.6 245.58-17.7 264.28-17.7 264.28-12.75 245.58-12.75 245.58-4.8 270.28-4.8 272.28-0.55Q272.28-0.35 270.93-0.18 269.58 0 266.28 0L266.28 0ZM311.83 0L296.93 0Q293.38 0 291.38-1 289.38-2 288.58-4 287.78-6 287.78-8.95L287.78-8.95 287.78-20.1Q287.78-24.9 289.93-27.18 292.08-29.45 296.93-29.45L296.93-29.45 311.98-29.45Q315.43-29.45 317.25-29.08 319.08-28.7 319.08-28.3L319.08-28.3 318.08-24.15Q317.23-24.3 313.05-24.48 308.88-24.65 300.93-24.65L300.93-24.65 298.38-24.65Q294.38-24.65 294.38-21.1L294.38-21.1 294.38-8.35Q294.38-6.65 295.25-5.73 296.13-4.8 298.38-4.8L298.38-4.8 300.43-4.8Q305.23-4.8 308.53-4.88 311.83-4.95 313.98-5L313.98-5 313.98-11.8 310.98-11.75 304.43-11.25 304.43-16.15 320.53-16.15 320.53-2.1 321.03-1.05Q321.03-0.65 318.93-0.33 316.83 0 311.83 0L311.83 0ZM331.33 0L324.03 0 338.68-29.4 348.53-29.4 363.13 0 355.43 0 352.48-6.35 334.58-6.35 331.33 0ZM343.28-24.9L336.38-11.25 350.63-11.25 343.78-24.9 343.28-24.9ZM374.22 0L367.62 0 367.62-25.4 367.12-29.4 374.72-29.4 386.02-9.4 397.72-29.4 404.47-29.4 404.47 0 397.87 0 397.87-18.65 397.32-18.65 395.37-14.3 389.07-3 383.02-3 376.72-14.3 374.72-18.65 374.22-18.65 374.22 0ZM439.77 0L412.47 0 412.47-29.4 443.57-29.4 443.57-24.6 419.07-24.6 419.07-17.7 437.77-17.7 437.77-12.75 419.07-12.75 419.07-4.8 443.77-4.8 445.77-0.55Q445.77-0.35 444.42-0.18 443.07 0 439.77 0L439.77 0ZM483.97 0L467.37 0Q463.97 0 462.37-0.3 460.77-0.6 460.77-1L460.77-1 462.77-5.35Q463.92-5.15 468.49-4.98 473.07-4.8 481.07-4.8L481.07-4.8 482.02-4.8Q484.17-4.8 485.07-5.58 485.97-6.35 485.97-8.2L485.97-8.2 485.97-9.2Q485.97-10.95 485.24-11.7 484.52-12.45 482.02-12.45L482.02-12.45 470.42-12.45Q465.37-12.45 463.07-14.33 460.77-16.2 460.77-20.45L460.77-20.45 460.77-21.25Q460.77-23.45 461.59-25.3 462.42-27.15 464.42-28.28 466.42-29.4 469.92-29.4L469.92-29.4 483.52-29.4Q486.92-29.4 489.02-29.05 491.12-28.7 491.12-28.3L491.12-28.3 490.12-24.1Q488.82-24.25 484.22-24.43 479.62-24.6 471.87-24.6L471.87-24.6 471.32-24.65Q469.02-24.65 468.22-23.73 467.42-22.8 467.37-21.4L467.37-21.4 467.37-20.55Q467.37-18.9 468.29-18.07 469.22-17.25 471.37-17.25L471.37-17.25 482.47-17.25Q485.67-17.25 487.92-16.6 490.17-15.95 491.37-14.23 492.57-12.5 492.57-9.15L492.57-9.15 492.57-8.35Q492.57-4.6 490.64-2.3 488.72 0 483.97 0L483.97 0ZM523.36 0L499.56 0 500.06-4 500.06-29.4 506.66-29.4 506.66-4.8 527.36-4.8 529.36-0.55Q529.36-0.35 528.01-0.18 526.66 0 523.36 0L523.36 0ZM561.16 0L533.86 0 533.86-29.4 564.96-29.4 564.96-24.6 540.46-24.6 540.46-17.7 559.16-17.7 559.16-12.75 540.46-12.75 540.46-4.8 565.16-4.8 567.16-0.55Q567.16-0.35 565.81-0.18 564.46 0 561.16 0L561.16 0ZM599.46 0L572.16 0 572.16-29.4 603.26-29.4 603.26-24.6 578.76-24.6 578.76-17.7 597.46-17.7 597.46-12.75 578.76-12.75 578.76-4.8 603.46-4.8 605.46-0.55Q605.46-0.35 604.11-0.18 602.76 0 599.46 0L599.46 0ZM617.55 0L610.95 0 610.95-25.4 610.45-29.45 632.6-29.45Q635.8-29.45 637.63-28.6 639.45-27.75 640.33-26.38 641.2-25 641.45-23.45 641.7-21.9 641.7-20.5L641.7-20.5 641.7-17.55Q641.7-16.4 641.35-14.98 641-13.55 640.05-12.23 639.1-10.9 637.3-10.03 635.5-9.15 632.6-9.15L632.6-9.15 627.5-9.15Q624.35-9.15 621.63-9.3 618.9-9.45 617.55-9.55L617.55-9.55 617.55 0ZM617.55-24.65L617.55-13.95 631.15-13.95Q633.4-13.95 634.25-15.05 635.1-16.15 635.1-17.7L635.1-17.7 635.1-20.85Q635.1-22.45 634.25-23.55 633.4-24.65 631.2-24.65L631.2-24.65 617.55-24.65ZM691.65 0.5L691.65 0.5Q689.65 0.5 687.72-0.13 685.8-0.75 683.35-3.2L683.35-3.2 679.75-6.8Q677.55-9.05 674.92-10.1 672.3-11.15 668.35-11.15L668.35-11.15 666.8-11.15 666.8 0 660.2 0 660.2-25.4 659.7-29.45 681.85-29.45Q685.05-29.45 686.87-28.6 688.7-27.75 689.57-26.38 690.45-25 690.7-23.45 690.95-21.9 690.95-20.5L690.95-20.5 690.95-19.55Q690.95-18.45 690.65-17.1 690.35-15.75 689.5-14.45 688.65-13.15 687.07-12.25 685.5-11.35 682.95-11.2L682.95-11.2Q683.6-10.85 684.6-10.13 685.6-9.4 686.67-8.55 687.75-7.7 688.65-7 689.55-6.3 690.05-6L690.05-6Q691.85-4.95 693.25-4.55 694.65-4.15 695.55-4.1 696.45-4.05 696.6-4.05L696.6-4.05 695.6 0Q695.15 0.15 694.1 0.33 693.05 0.5 691.65 0.5ZM674.3-15.7L674.3-15.7Q676.2-15.7 677.7-15.78 679.2-15.85 680.4-15.95L680.4-15.95Q682.6-16.2 683.47-17.18 684.35-18.15 684.35-19.7L684.35-19.7 684.35-20.85Q684.35-22.45 683.5-23.55 682.65-24.65 680.45-24.65L680.45-24.65 666.8-24.65 666.8-15.95Q669-15.8 670.85-15.75 672.7-15.7 674.3-15.7ZM728.4 0L701.1 0 701.1-29.4 732.2-29.4 732.2-24.6 707.7-24.6 707.7-17.7 726.4-17.7 726.4-12.75 707.7-12.75 707.7-4.8 732.4-4.8 734.4-0.55Q734.4-0.35 733.05-0.18 731.7 0 728.4 0L728.4 0ZM746.49 0L739.89 0 739.89-25.4 739.39-29.45 761.54-29.45Q764.74-29.45 766.57-28.6 768.39-27.75 769.27-26.38 770.14-25 770.39-23.45 770.64-21.9 770.64-20.5L770.64-20.5 770.64-17.55Q770.64-16.4 770.29-14.98 769.94-13.55 768.99-12.23 768.04-10.9 766.24-10.03 764.44-9.15 761.54-9.15L761.54-9.15 756.44-9.15Q753.29-9.15 750.57-9.3 747.84-9.45 746.49-9.55L746.49-9.55 746.49 0ZM746.49-24.65L746.49-13.95 760.09-13.95Q762.34-13.95 763.19-15.05 764.04-16.15 764.04-17.7L764.04-17.7 764.04-20.85Q764.04-22.45 763.19-23.55 762.34-24.65 760.14-24.65L760.14-24.65 746.49-24.65ZM804.94 0L777.64 0 777.64-29.4 808.74-29.4 808.74-24.6 784.24-24.6 784.24-17.7 802.94-17.7 802.94-12.75 784.24-12.75 784.24-4.8 808.94-4.8 810.94-0.55Q810.94-0.35 809.59-0.18 808.24 0 804.94 0L804.94 0ZM819.24 0L811.94 0 826.59-29.4 836.44-29.4 851.04 0 843.34 0 840.39-6.35 822.49-6.35 819.24 0ZM831.19-24.9L824.29-11.25 838.54-11.25 831.69-24.9 831.19-24.9ZM865.69 0L859.09 0 859.04-24.65 846.04-24.65 846.04-29.45 878.74-29.45 878.74-24.65 865.69-24.65 865.69 0Z" opacity="1" transform="matrix(1,0,0,1,0,0)" fill="#ffffff" class="slogan-text-1" data-fill-palette-color="secondary" id="text-1"></path></svg></g></svg></g></svg></g></svg></g><g transform="matrix(1,0,0,1,122.87734402797405,0)"><svg viewBox="0 0 149.7653119440519 149.7653119440519" height="149.7653119440519" width="149.7653119440519"><g><svg></svg></g><g id="icon-0"><svg viewBox="0 0 149.7653119440519 149.7653119440519" height="149.7653119440519" width="149.7653119440519"><g><path d="M0 74.883c0-41.357 33.526-74.883 74.883-74.883 41.357 0 74.883 33.526 74.882 74.883 0 41.357-33.526 74.883-74.882 74.882-41.357 0-74.883-33.526-74.883-74.882zM74.883 145.93c39.238 0 71.047-31.809 71.047-71.047 0-39.238-31.809-71.047-71.047-71.047-39.238 0-71.047 31.809-71.047 71.047 0 39.238 31.809 71.047 71.047 71.047z" data-fill-palette-color="accent" fill="#ffffff" stroke="transparent"></path></g><g transform="matrix(1,0,0,1,30.285947550953743,52.52917980943861)"><svg viewBox="0 0 89.1934168421444 44.70695232517467" height="44.70695232517467" width="89.1934168421444"><g><svg xmlns="http://www.w3.org/2000/svg" xmlns:xlink="http://www.w3.org/1999/xlink" xml:space="preserve" style="shape-rendering:geometricPrecision;text-rendering:geometricPrecision;image-rendering:optimizeQuality;" viewBox="0.0000020000000000575113 0.0000027841116459863258 14.727499 7.381952827609914" x="0" y="0" fill-rule="evenodd" clip-rule="evenodd" width="89.1934168421444" height="44.70695232517467" class="icon-z$-0" data-fill-palette-color="accent" id="z$-0"><g fill="#ffffff" data-fill-palette-color="accent"><path class="" d="M1.757 3.091c-0.313 0.444-0.296 1.331-0.417 1.95-0.153 0.784-0.711 1.203-1.34 1.534 0.188-0.771 0.348-1.542 0.412-2.313 0.078-0.953-0.06-0.891 0.767-1.575 1.159-0.961 3.04-1.741 5.848-2.29 2.456-0.406 5.049-0.453 7.701-0.351-0.89 1.809-3.733 1.961-7.203 1.581-1.811 0.02-3.495-0.488-5.768 1.464z m8.33 2.781c-3.895 2.038-7.803-2.284-9.165 0.688 2.104-1.831 5.079 3.183 9.165-0.688z m2.489-2.547c-4.49 2.72-9.502-0.792-10.907 1.859 3.412-1.235 7.765 2.753 10.907-1.859z m0.834-1.478c-3.944 1.761-10.043-1.402-11.565 2.239 3.106-1.808 8.446 1.438 11.565-2.239z" fill="#ffffff" data-fill-palette-color="accent"></path></g></svg></g></svg></g></svg></g></svg></g><g></g></svg></g><defs></defs></svg><rect width="395.52" height="230.79217478524106" fill="none" stroke="none" visibility="hidden"></rect></g></svg></g></svg>